<mxfile host="app.diagrams.net" modified="2024-03-09T03:49:01.842Z" agent="Mozilla/5.0 (Windows NT 10.0; Win64; x64) AppleWebKit/537.36 (KHTML, like Gecko) Chrome/122.0.0.0 Safari/537.36" etag="TgVDqnSv0vPu9zCd7k8t" version="24.0.2" type="github" pages="2">
  <diagram id="prtHgNgQTEPvFCAcTncT" name="Page-1">
    <mxGraphModel dx="1085" dy="560" grid="1" gridSize="10" guides="1" tooltips="1" connect="1" arrows="1" fold="1" page="1" pageScale="1" pageWidth="827" pageHeight="1169" math="0" shadow="0">
      <root>
        <mxCell id="0" />
        <mxCell id="1" parent="0" />
        <mxCell id="dNxyNK7c78bLwvsdeMH5-19" value="Pool" style="swimlane;html=1;childLayout=stackLayout;resizeParent=1;resizeParentMax=0;horizontal=0;startSize=20;horizontalStack=0;" parent="1" vertex="1">
          <mxGeometry x="120" y="120" width="450" height="360" as="geometry" />
        </mxCell>
        <mxCell id="dNxyNK7c78bLwvsdeMH5-27" value="" style="edgeStyle=orthogonalEdgeStyle;rounded=0;orthogonalLoop=1;jettySize=auto;html=1;dashed=1;endArrow=none;endFill=0;" parent="dNxyNK7c78bLwvsdeMH5-19" source="dNxyNK7c78bLwvsdeMH5-24" target="dNxyNK7c78bLwvsdeMH5-26" edge="1">
          <mxGeometry relative="1" as="geometry" />
        </mxCell>
        <mxCell id="dNxyNK7c78bLwvsdeMH5-31" style="edgeStyle=orthogonalEdgeStyle;rounded=0;orthogonalLoop=1;jettySize=auto;html=1;endArrow=classic;endFill=1;" parent="dNxyNK7c78bLwvsdeMH5-19" source="dNxyNK7c78bLwvsdeMH5-28" target="dNxyNK7c78bLwvsdeMH5-30" edge="1">
          <mxGeometry relative="1" as="geometry" />
        </mxCell>
        <mxCell id="dNxyNK7c78bLwvsdeMH5-35" style="edgeStyle=orthogonalEdgeStyle;rounded=0;orthogonalLoop=1;jettySize=auto;html=1;endArrow=classic;endFill=1;" parent="dNxyNK7c78bLwvsdeMH5-19" source="dNxyNK7c78bLwvsdeMH5-28" target="dNxyNK7c78bLwvsdeMH5-34" edge="1">
          <mxGeometry relative="1" as="geometry" />
        </mxCell>
        <mxCell id="dNxyNK7c78bLwvsdeMH5-38" style="edgeStyle=orthogonalEdgeStyle;rounded=0;orthogonalLoop=1;jettySize=auto;html=1;endArrow=classic;endFill=1;" parent="dNxyNK7c78bLwvsdeMH5-19" source="dNxyNK7c78bLwvsdeMH5-26" target="dNxyNK7c78bLwvsdeMH5-36" edge="1">
          <mxGeometry relative="1" as="geometry">
            <Array as="points">
              <mxPoint x="180" y="340" />
              <mxPoint x="400" y="340" />
            </Array>
          </mxGeometry>
        </mxCell>
        <mxCell id="dNxyNK7c78bLwvsdeMH5-20" value="Lane 1" style="swimlane;html=1;startSize=20;horizontal=0;" parent="dNxyNK7c78bLwvsdeMH5-19" vertex="1">
          <mxGeometry x="20" width="430" height="120" as="geometry" />
        </mxCell>
        <mxCell id="dNxyNK7c78bLwvsdeMH5-25" value="" style="edgeStyle=orthogonalEdgeStyle;rounded=0;orthogonalLoop=1;jettySize=auto;html=1;" parent="dNxyNK7c78bLwvsdeMH5-20" source="dNxyNK7c78bLwvsdeMH5-23" target="dNxyNK7c78bLwvsdeMH5-24" edge="1">
          <mxGeometry relative="1" as="geometry" />
        </mxCell>
        <mxCell id="dNxyNK7c78bLwvsdeMH5-23" value="" style="ellipse;whiteSpace=wrap;html=1;" parent="dNxyNK7c78bLwvsdeMH5-20" vertex="1">
          <mxGeometry x="40" y="40" width="40" height="40" as="geometry" />
        </mxCell>
        <mxCell id="dNxyNK7c78bLwvsdeMH5-24" value="" style="rounded=0;whiteSpace=wrap;html=1;fontFamily=Helvetica;fontSize=12;fontColor=#000000;align=center;" parent="dNxyNK7c78bLwvsdeMH5-20" vertex="1">
          <mxGeometry x="120" y="30" width="80" height="60" as="geometry" />
        </mxCell>
        <mxCell id="dNxyNK7c78bLwvsdeMH5-33" value="" style="edgeStyle=orthogonalEdgeStyle;rounded=0;orthogonalLoop=1;jettySize=auto;html=1;endArrow=classic;endFill=1;" parent="dNxyNK7c78bLwvsdeMH5-20" source="dNxyNK7c78bLwvsdeMH5-30" target="dNxyNK7c78bLwvsdeMH5-32" edge="1">
          <mxGeometry relative="1" as="geometry" />
        </mxCell>
        <mxCell id="dNxyNK7c78bLwvsdeMH5-30" value="" style="rounded=0;whiteSpace=wrap;html=1;fontFamily=Helvetica;fontSize=12;fontColor=#000000;align=center;" parent="dNxyNK7c78bLwvsdeMH5-20" vertex="1">
          <mxGeometry x="240" y="30" width="80" height="60" as="geometry" />
        </mxCell>
        <mxCell id="dNxyNK7c78bLwvsdeMH5-32" value="" style="ellipse;whiteSpace=wrap;html=1;" parent="dNxyNK7c78bLwvsdeMH5-20" vertex="1">
          <mxGeometry x="360" y="40" width="40" height="40" as="geometry" />
        </mxCell>
        <mxCell id="dNxyNK7c78bLwvsdeMH5-21" value="Lane 2" style="swimlane;html=1;startSize=20;horizontal=0;" parent="dNxyNK7c78bLwvsdeMH5-19" vertex="1">
          <mxGeometry x="20" y="120" width="430" height="120" as="geometry" />
        </mxCell>
        <mxCell id="dNxyNK7c78bLwvsdeMH5-29" value="" style="edgeStyle=orthogonalEdgeStyle;rounded=0;orthogonalLoop=1;jettySize=auto;html=1;endArrow=classic;endFill=1;" parent="dNxyNK7c78bLwvsdeMH5-21" source="dNxyNK7c78bLwvsdeMH5-26" target="dNxyNK7c78bLwvsdeMH5-28" edge="1">
          <mxGeometry relative="1" as="geometry" />
        </mxCell>
        <mxCell id="dNxyNK7c78bLwvsdeMH5-26" value="" style="rounded=0;whiteSpace=wrap;html=1;fontFamily=Helvetica;fontSize=12;fontColor=#000000;align=center;" parent="dNxyNK7c78bLwvsdeMH5-21" vertex="1">
          <mxGeometry x="120" y="30" width="80" height="60" as="geometry" />
        </mxCell>
        <mxCell id="dNxyNK7c78bLwvsdeMH5-28" value="" style="rhombus;whiteSpace=wrap;html=1;fontFamily=Helvetica;fontSize=12;fontColor=#000000;align=center;" parent="dNxyNK7c78bLwvsdeMH5-21" vertex="1">
          <mxGeometry x="260" y="40" width="40" height="40" as="geometry" />
        </mxCell>
        <mxCell id="dNxyNK7c78bLwvsdeMH5-22" value="Lane 3" style="swimlane;html=1;startSize=20;horizontal=0;" parent="dNxyNK7c78bLwvsdeMH5-19" vertex="1">
          <mxGeometry x="20" y="240" width="430" height="120" as="geometry" />
        </mxCell>
        <mxCell id="dNxyNK7c78bLwvsdeMH5-37" value="" style="edgeStyle=orthogonalEdgeStyle;rounded=0;orthogonalLoop=1;jettySize=auto;html=1;endArrow=classic;endFill=1;" parent="dNxyNK7c78bLwvsdeMH5-22" source="dNxyNK7c78bLwvsdeMH5-34" target="dNxyNK7c78bLwvsdeMH5-36" edge="1">
          <mxGeometry relative="1" as="geometry" />
        </mxCell>
        <mxCell id="dNxyNK7c78bLwvsdeMH5-34" value="" style="rounded=0;whiteSpace=wrap;html=1;fontFamily=Helvetica;fontSize=12;fontColor=#000000;align=center;" parent="dNxyNK7c78bLwvsdeMH5-22" vertex="1">
          <mxGeometry x="240" y="20" width="80" height="60" as="geometry" />
        </mxCell>
        <mxCell id="dNxyNK7c78bLwvsdeMH5-36" value="" style="rhombus;whiteSpace=wrap;html=1;fontFamily=Helvetica;fontSize=12;fontColor=#000000;align=center;" parent="dNxyNK7c78bLwvsdeMH5-22" vertex="1">
          <mxGeometry x="360" y="30" width="40" height="40" as="geometry" />
        </mxCell>
      </root>
    </mxGraphModel>
  </diagram>
  <diagram id="cwomNliqg2_6PGtteF9s" name="第 2 页">
    <mxGraphModel dx="1770" dy="1656" grid="1" gridSize="10" guides="1" tooltips="1" connect="1" arrows="1" fold="1" page="1" pageScale="1" pageWidth="827" pageHeight="1169" math="0" shadow="0">
      <root>
        <mxCell id="0" />
        <mxCell id="1" parent="0" />
        <mxCell id="HjmpT_cRP54IpQnOurAE-12" value="main" style="swimlane;startSize=20;html=1;" vertex="1" parent="1">
          <mxGeometry x="-110" y="60" width="260" height="110" as="geometry" />
        </mxCell>
        <mxCell id="HjmpT_cRP54IpQnOurAE-14" value="isClient" style="rhombus;whiteSpace=wrap;html=1;" vertex="1" parent="HjmpT_cRP54IpQnOurAE-12">
          <mxGeometry x="32" y="40" width="60" height="30" as="geometry" />
        </mxCell>
        <mxCell id="HjmpT_cRP54IpQnOurAE-20" value="Y" style="text;strokeColor=none;align=center;fillColor=none;html=1;verticalAlign=middle;whiteSpace=wrap;rounded=0;" vertex="1" parent="HjmpT_cRP54IpQnOurAE-12">
          <mxGeometry x="40" y="67" width="60" height="30" as="geometry" />
        </mxCell>
        <mxCell id="HjmpT_cRP54IpQnOurAE-21" value="&lt;span style=&quot;white-space: pre;&quot;&gt;&#x9;&lt;/span&gt;N" style="text;strokeColor=none;align=center;fillColor=none;html=1;verticalAlign=middle;whiteSpace=wrap;rounded=0;" vertex="1" parent="HjmpT_cRP54IpQnOurAE-12">
          <mxGeometry x="64" y="30" width="60" height="30" as="geometry" />
        </mxCell>
        <mxCell id="HjmpT_cRP54IpQnOurAE-13" value="build.go" style="swimlane;startSize=20;html=1;" vertex="1" parent="1">
          <mxGeometry x="-110" y="150" width="260" height="300" as="geometry" />
        </mxCell>
        <mxCell id="HjmpT_cRP54IpQnOurAE-16" value="&lt;div style=&quot;color: #cccccc;background-color: #1f1f1f;font-family: Consolas, &#39;Courier New&#39;, monospace;font-weight: normal;font-size: 14px;line-height: 19px;white-space: pre;&quot;&gt;&lt;div&gt;&lt;span style=&quot;color: #dcdcaa;&quot;&gt;BuildSupervisor&lt;/span&gt;&lt;/div&gt;&lt;/div&gt;" style="text;whiteSpace=wrap;html=1;" vertex="1" parent="HjmpT_cRP54IpQnOurAE-13">
          <mxGeometry x="2" y="40" width="120" height="30" as="geometry" />
        </mxCell>
        <mxCell id="HjmpT_cRP54IpQnOurAE-18" value="&lt;div style=&quot;color: #cccccc;background-color: #1f1f1f;font-family: Consolas, &#39;Courier New&#39;, monospace;font-weight: normal;font-size: 14px;line-height: 19px;white-space: pre;&quot;&gt;&lt;div&gt;&lt;span style=&quot;color: #dcdcaa;&quot;&gt;BuildNewPbftNode&lt;/span&gt;&lt;/div&gt;&lt;/div&gt;" style="text;whiteSpace=wrap;html=1;" vertex="1" parent="HjmpT_cRP54IpQnOurAE-13">
          <mxGeometry x="132" y="40" width="130" height="40" as="geometry" />
        </mxCell>
        <mxCell id="HjmpT_cRP54IpQnOurAE-17" style="edgeStyle=orthogonalEdgeStyle;rounded=0;orthogonalLoop=1;jettySize=auto;html=1;exitX=0.5;exitY=1;exitDx=0;exitDy=0;" edge="1" parent="1" source="HjmpT_cRP54IpQnOurAE-14" target="HjmpT_cRP54IpQnOurAE-16">
          <mxGeometry relative="1" as="geometry" />
        </mxCell>
        <mxCell id="HjmpT_cRP54IpQnOurAE-19" style="edgeStyle=orthogonalEdgeStyle;rounded=0;orthogonalLoop=1;jettySize=auto;html=1;exitX=1;exitY=0.5;exitDx=0;exitDy=0;" edge="1" parent="1" source="HjmpT_cRP54IpQnOurAE-14">
          <mxGeometry relative="1" as="geometry">
            <mxPoint x="82" y="190" as="targetPoint" />
          </mxGeometry>
        </mxCell>
        <mxCell id="HjmpT_cRP54IpQnOurAE-23" style="edgeStyle=orthogonalEdgeStyle;rounded=0;orthogonalLoop=1;jettySize=auto;html=1;exitX=1;exitY=0.5;exitDx=0;exitDy=0;entryX=0;entryY=0.5;entryDx=0;entryDy=0;" edge="1" parent="1" target="HjmpT_cRP54IpQnOurAE-47">
          <mxGeometry relative="1" as="geometry">
            <mxPoint x="150" y="210" as="sourcePoint" />
            <mxPoint x="258.0000000000002" y="210" as="targetPoint" />
            <Array as="points">
              <mxPoint x="271" y="211" />
            </Array>
          </mxGeometry>
        </mxCell>
        <mxCell id="HjmpT_cRP54IpQnOurAE-28" value="pbft_basic" style="swimlane;childLayout=stackLayout;resizeParent=1;resizeParentMax=0;startSize=20;html=1;" vertex="1" parent="1">
          <mxGeometry x="230.00000000000045" y="50" width="639.9999999999995" height="480" as="geometry" />
        </mxCell>
        <mxCell id="HjmpT_cRP54IpQnOurAE-29" value="messageHandle.go" style="swimlane;startSize=20;html=1;" vertex="1" parent="HjmpT_cRP54IpQnOurAE-28">
          <mxGeometry y="20" width="120" height="460" as="geometry" />
        </mxCell>
        <mxCell id="HjmpT_cRP54IpQnOurAE-31" value="pbftInside_module.go" style="swimlane;startSize=20;html=1;" vertex="1" parent="HjmpT_cRP54IpQnOurAE-28">
          <mxGeometry x="120" y="20" width="184.99999999999955" height="460" as="geometry" />
        </mxCell>
        <mxCell id="HjmpT_cRP54IpQnOurAE-47" value="&lt;div style=&quot;color: #cccccc;background-color: #1f1f1f;font-family: Consolas, &#39;Courier New&#39;, monospace;font-weight: normal;font-size: 14px;line-height: 19px;white-space: pre;&quot;&gt;&lt;div&gt;&lt;span style=&quot;color: #dcdcaa;&quot;&gt;NewPbftNode&lt;/span&gt;&lt;/div&gt;&lt;/div&gt;" style="text;whiteSpace=wrap;html=1;" vertex="1" parent="HjmpT_cRP54IpQnOurAE-31">
          <mxGeometry x="39.999999999999545" y="120" width="120" height="40" as="geometry" />
        </mxCell>
        <mxCell id="HjmpT_cRP54IpQnOurAE-33" value="pbft.go" style="swimlane;startSize=20;html=1;" vertex="1" parent="HjmpT_cRP54IpQnOurAE-28">
          <mxGeometry x="304.99999999999955" y="20" width="170" height="460" as="geometry" />
        </mxCell>
        <mxCell id="HjmpT_cRP54IpQnOurAE-43" style="edgeStyle=orthogonalEdgeStyle;rounded=0;orthogonalLoop=1;jettySize=auto;html=1;entryX=0.383;entryY=1.026;entryDx=0;entryDy=0;entryPerimeter=0;" edge="1" parent="HjmpT_cRP54IpQnOurAE-33" target="HjmpT_cRP54IpQnOurAE-42">
          <mxGeometry relative="1" as="geometry">
            <mxPoint x="68.47" y="-70" as="targetPoint" />
            <mxPoint x="68.47000000000045" y="120" as="sourcePoint" />
          </mxGeometry>
        </mxCell>
        <mxCell id="HjmpT_cRP54IpQnOurAE-35" value="chain" style="swimlane;childLayout=stackLayout;resizeParent=1;resizeParentMax=0;startSize=20;html=1;" vertex="1" parent="HjmpT_cRP54IpQnOurAE-33">
          <mxGeometry x="-0.9999999999995453" y="-170" width="140" height="90" as="geometry" />
        </mxCell>
        <mxCell id="HjmpT_cRP54IpQnOurAE-36" value="blockchain.go" style="swimlane;startSize=20;html=1;" vertex="1" parent="HjmpT_cRP54IpQnOurAE-35">
          <mxGeometry y="20" width="140" height="70" as="geometry" />
        </mxCell>
        <mxCell id="HjmpT_cRP54IpQnOurAE-42" value="&lt;div style=&quot;color: #cccccc;background-color: #1f1f1f;font-family: Consolas, &#39;Courier New&#39;, monospace;font-weight: normal;font-size: 14px;line-height: 19px;white-space: pre;&quot;&gt;&lt;div&gt;&lt;span style=&quot;color: #dcdcaa;&quot;&gt;GenerateBlock&lt;/span&gt;&lt;/div&gt;&lt;/div&gt;" style="text;whiteSpace=wrap;html=1;" vertex="1" parent="HjmpT_cRP54IpQnOurAE-36">
          <mxGeometry x="20" y="22.5" width="130" height="27.5" as="geometry" />
        </mxCell>
        <mxCell id="HjmpT_cRP54IpQnOurAE-30" value="&lt;div style=&quot;color: #cccccc;background-color: #1f1f1f;font-family: Consolas, &#39;Courier New&#39;, monospace;font-weight: normal;font-size: 14px;line-height: 19px;white-space: pre;&quot;&gt;&lt;div&gt;&lt;span style=&quot;color: #dcdcaa;&quot;&gt;Propose&lt;/span&gt;&lt;/div&gt;&lt;/div&gt;" style="text;whiteSpace=wrap;html=1;" vertex="1" parent="HjmpT_cRP54IpQnOurAE-33">
          <mxGeometry x="-284.99999999999955" y="170" width="60" height="40" as="geometry" />
        </mxCell>
        <mxCell id="HjmpT_cRP54IpQnOurAE-32" value="&lt;div style=&quot;color: #cccccc;background-color: #1f1f1f;font-family: Consolas, &#39;Courier New&#39;, monospace;font-weight: normal;font-size: 14px;line-height: 19px;white-space: pre;&quot;&gt;&lt;div&gt;&lt;span style=&quot;color: #dcdcaa;&quot;&gt;HandleinPropose&lt;/span&gt;&lt;/div&gt;&lt;/div&gt;" style="text;whiteSpace=wrap;html=1;" vertex="1" parent="HjmpT_cRP54IpQnOurAE-33">
          <mxGeometry x="10" y="170" width="150" height="40" as="geometry" />
        </mxCell>
        <mxCell id="HjmpT_cRP54IpQnOurAE-49" value="&lt;div style=&quot;color: #cccccc;background-color: #1f1f1f;font-family: Consolas, &#39;Courier New&#39;, monospace;font-weight: normal;font-size: 14px;line-height: 19px;white-space: pre;&quot;&gt;&lt;div&gt;&lt;span style=&quot;color: #dcdcaa;&quot;&gt;Broadcast(&lt;/span&gt;&lt;span style=&quot;color: rgb(78, 201, 176);&quot;&gt;PrePrepare&lt;/span&gt;&lt;span style=&quot;color: rgb(220, 220, 170);&quot;&gt;)&lt;/span&gt;&lt;/div&gt;&lt;/div&gt;" style="text;whiteSpace=wrap;html=1;" vertex="1" parent="HjmpT_cRP54IpQnOurAE-33">
          <mxGeometry x="-10" y="220" width="180" height="40" as="geometry" />
        </mxCell>
        <mxCell id="HjmpT_cRP54IpQnOurAE-34" style="edgeStyle=orthogonalEdgeStyle;rounded=0;orthogonalLoop=1;jettySize=auto;html=1;exitX=1;exitY=0.5;exitDx=0;exitDy=0;entryX=0;entryY=0.5;entryDx=0;entryDy=0;" edge="1" parent="HjmpT_cRP54IpQnOurAE-33" source="HjmpT_cRP54IpQnOurAE-30" target="HjmpT_cRP54IpQnOurAE-32">
          <mxGeometry relative="1" as="geometry" />
        </mxCell>
        <mxCell id="HjmpT_cRP54IpQnOurAE-50" style="edgeStyle=orthogonalEdgeStyle;rounded=0;orthogonalLoop=1;jettySize=auto;html=1;entryX=0;entryY=0.5;entryDx=0;entryDy=0;" edge="1" parent="HjmpT_cRP54IpQnOurAE-33" source="HjmpT_cRP54IpQnOurAE-30" target="HjmpT_cRP54IpQnOurAE-49">
          <mxGeometry relative="1" as="geometry" />
        </mxCell>
        <mxCell id="HjmpT_cRP54IpQnOurAE-65" value="pbftOutside_module.go" style="swimlane;startSize=20;html=1;" vertex="1" parent="HjmpT_cRP54IpQnOurAE-28">
          <mxGeometry x="474.99999999999955" y="20" width="165" height="460" as="geometry" />
        </mxCell>
        <mxCell id="HjmpT_cRP54IpQnOurAE-68" style="edgeStyle=orthogonalEdgeStyle;rounded=0;orthogonalLoop=1;jettySize=auto;html=1;entryX=0;entryY=0.5;entryDx=0;entryDy=0;" edge="1" parent="1" target="HjmpT_cRP54IpQnOurAE-30">
          <mxGeometry relative="1" as="geometry">
            <mxPoint x="190" y="210" as="sourcePoint" />
            <Array as="points">
              <mxPoint x="190" y="260" />
            </Array>
          </mxGeometry>
        </mxCell>
      </root>
    </mxGraphModel>
  </diagram>
</mxfile>
